<?xml version="1.0" standalone="no"?>
<!DOCTYPE svg PUBLIC "-//W3C//DTD SVG 20010904//EN"
 "http://www.w3.org/TR/2001/REC-SVG-20010904/DTD/svg10.dtd">
<svg version="1.0" xmlns="http://www.w3.org/2000/svg"
 width="217.000000pt" height="232.000000pt" viewBox="0 0 217.000000 232.000000"
 preserveAspectRatio="xMidYMid meet">

<g transform="translate(0.000000,232.000000) scale(0.100000,-0.100000)"
fill="#000000" stroke="none">
<path d="M908 2125 c-391 -66 -701 -357 -793 -745 -22 -94 -29 -251 -16 -345
47 -327 243 -600 536 -746 158 -78 228 -93 430 -93 145 0 182 3 250 22 285 79
526 286 640 549 61 140 79 230 79 388 1 181 -25 295 -97 440 -191 383 -612
600 -1029 530z m349 -101 c263 -60 475 -228 594 -469 68 -138 92 -239 92 -390
2 -662 -685 -1086 -1278 -789 -403 203 -586 691 -418 1114 59 147 175 298 297
385 83 59 213 120 306 144 98 25 309 28 407 5z"/>
<path d="M780 1907 c-198 -82 -367 -250 -444 -442 -15 -37 -28 -83 -29 -101
-2 -34 -2 -34 119 -93 l121 -59 -4 67 c-6 82 16 217 50 299 41 104 88 172 178
264 47 48 81 88 75 88 -6 0 -36 -11 -66 -23z"/>
<path d="M1386 1858 c156 -147 224 -312 226 -545 0 -68 3 -123 5 -123 2 0 43
23 91 52 48 28 97 57 109 64 21 13 21 15 6 71 -41 157 -139 305 -273 414 -53
42 -187 119 -208 119 -6 0 14 -23 44 -52z"/>
<path d="M1032 1736 c-19 -52 -15 -156 8 -201 11 -21 19 -39 17 -40 -1 0 -24
-12 -51 -26 -63 -31 -160 -120 -193 -176 -14 -24 -34 -71 -44 -104 l-19 -61
48 -53 c120 -131 212 -397 212 -612 l0 -73 81 0 82 0 -5 108 c-6 119 -29 222
-84 364 -79 204 -97 325 -59 398 27 53 72 107 109 129 54 34 56 24 6 -27 -74
-77 -98 -179 -67 -283 8 -24 46 -116 85 -204 76 -172 107 -270 120 -380 8 -78
12 -81 85 -50 45 19 47 38 17 161 -31 133 -83 258 -154 374 -106 176 -115 269
-32 368 36 42 47 41 33 -4 -10 -34 -9 -38 18 -61 60 -48 119 -83 127 -75 5 5
11 26 14 48 4 28 3 35 -4 25 -9 -12 -15 -13 -36 -3 -29 13 -34 46 -15 99 l10
31 51 -14 c28 -7 58 -20 67 -28 13 -14 13 -19 -8 -47 l-24 -32 37 6 c76 12
135 85 121 148 -4 16 -9 29 -11 29 -16 0 -53 -58 -49 -76 7 -30 -6 -38 -22
-14 -8 11 -11 29 -7 45 5 19 2 25 -10 25 -9 0 -16 -4 -16 -10 0 -20 -19 -9
-22 13 -2 14 -9 21 -20 21 -14 -1 -16 4 -12 21 4 18 -1 25 -28 38 -18 8 -55
21 -83 28 -128 31 -228 101 -242 170 -8 42 -18 43 -31 5z m336 -241 c34 -10
29 -37 -5 -29 -32 8 -53 22 -53 36 0 5 8 7 18 4 9 -2 27 -7 40 -11z m-55 -117
c-3 -18 -10 -37 -16 -43 -7 -7 -8 -4 -3 8 3 10 6 30 6 43 0 13 4 24 10 24 5 0
7 -14 3 -32z"/>
<path d="M1150 1718 c1 -58 22 -83 95 -114 l38 -16 -41 47 c-23 26 -49 64 -59
86 -23 50 -33 49 -33 -3z"/>
<path d="M1381 1322 c22 -31 24 -42 21 -123 -2 -78 0 -91 18 -109 12 -12 33
-20 51 -20 l32 0 -34 23 c-33 22 -34 25 -39 102 -5 84 -14 108 -51 140 -22 19
-22 19 2 -13z"/>
<path d="M283 1130 c8 -97 44 -210 100 -309 49 -87 174 -219 261 -276 66 -43
188 -94 225 -95 24 0 24 0 17 83 -28 329 -152 475 -552 652 l-57 25 6 -80z"/>
<path d="M1785 1134 c-127 -77 -259 -203 -321 -309 l-25 -43 38 -111 c20 -61
40 -111 44 -111 18 0 173 158 209 213 69 105 130 301 118 377 -3 19 -7 18 -63
-16z"/>
<path d="M1440 1141 c0 -14 38 -43 53 -39 9 2 2 11 -19 25 -19 12 -34 18 -34
14z"/>
</g>
</svg>
